<?xml version="1.0" encoding="utf-8"?>
<svg viewBox="0 0 24 24" width="24" height="24" xmlns="http://www.w3.org/2000/svg">
  <path fill="gray" d="M1 12C1 5.925 5.925 1 12 1s11 4.925 11 11s-4.925 11-11 11S1 18.075 1 12m11-9.5A9.5 9.5 0 0 0 2.5 12a9.5 9.5 0 0 0 9.5 9.5a9.5 9.5 0 0 0 9.5-9.5A9.5 9.5 0 0 0 12 2.5" transform="matrix(0.9999999999999999, 0, 0, 0.9999999999999999, 0, -4.440892098500626e-16)"/>
  <path fill="gray" d="M 7 15.584 L 7 8.416 C 7.001 8.031 7.418 7.791 7.751 7.984 C 7.757 7.988 7.764 7.992 7.77 7.996 L 13.346 11.579 C 13.653 11.776 13.653 12.224 13.346 12.421 L 7.77 16.005 C 7.446 16.213 7.019 15.992 7.001 15.608 C 7 15.6 7 15.593 7 15.585 L 7 15.584 Z" style="transform-origin: 10.2881px 12.0004px;" transform="matrix(-1, 0, 0, -1, 0, 0)"/>
</svg>